<svg width="1110" height="1069" viewBox="0 0 1110 1069" fill="none" xmlns="http://www.w3.org/2000/svg">
<g style="mix-blend-mode:multiply">
<path d="M630.682 124.068C619.06 119.512 578.91 167.491 564.382 214.541C560.625 226.7 557.431 239.388 554.67 252.141C554.124 254.66 544.139 248.484 536.208 236.26C528.278 224.037 522.386 205.766 521.905 208.268C521.295 211.509 522.178 231.352 527.86 246.976C535.405 267.717 548.377 285.395 547.702 289.582C538.857 344.651 548.73 398.261 530.702 382.846C492.383 350.057 453.678 267.83 468.078 204.675C495.272 85.5366 590.308 -37.5481 694.655 10.7682C780.412 50.4864 759.976 187.591 698.845 278.305C657.122 340.208 610.712 372.9 584.914 394.893C564.221 412.538 565.313 315.857 585.669 236.244C601.305 175.143 642.289 128.607 630.666 124.068H630.682Z" fill="url(#paint0_linear_3477_1910)"/>
<path d="M780.085 1069C767.184 1069 754.074 1066.82 741.236 1062.22C681.431 1040.79 650.333 974.977 671.787 915.222L886.601 317.151C908.056 257.413 973.942 226.35 1033.76 247.78C1093.57 269.21 1124.67 335.023 1103.21 394.777L888.399 992.849C871.55 1039.76 827.294 1069 780.101 1069H780.085Z" fill="url(#paint1_linear_3477_1910)"/>
<path d="M780.201 1068.98C741.622 1068.98 703.956 1049.56 682.264 1014.28L457.054 648.175C423.81 594.116 440.648 523.34 494.688 490.068C548.727 456.795 619.477 473.656 652.737 527.715L877.946 893.823C911.19 947.883 894.352 1018.66 840.312 1051.93C821.535 1063.49 800.756 1069 780.217 1069L780.201 1068.98Z" fill="url(#paint2_linear_3477_1910)"/>
<path d="M329.783 1069C309.244 1069 288.465 1063.49 269.688 1051.93C215.648 1018.67 198.81 947.881 232.054 893.821L457.263 527.709C490.507 473.649 561.273 456.804 615.312 490.061C669.352 523.317 686.19 594.11 652.946 648.17L427.737 1014.28C406.044 1049.56 368.362 1068.98 329.799 1068.98L329.783 1069Z" fill="url(#paint3_linear_3477_1910)"/>
<path d="M329.898 1069C282.706 1069 238.45 1039.78 221.601 992.849L6.78894 394.778C-14.665 335.04 16.4167 269.227 76.2375 247.781C136.042 226.351 201.929 257.398 223.399 317.153L438.211 915.223C459.665 974.961 428.583 1040.77 368.762 1062.22C355.925 1066.82 342.816 1069 329.914 1069H329.898Z" fill="url(#paint4_linear_3477_1910)"/>
</g>
<defs>
<linearGradient id="paint0_linear_3477_1910" x1="608.5" y1="0" x2="608.5" y2="397" gradientUnits="userSpaceOnUse">
<stop stop-color="#D9D9D9" stop-opacity="0"/>
<stop offset="1" stop-color="#D9D9D9" stop-opacity="0.74"/>
</linearGradient>
<linearGradient id="paint1_linear_3477_1910" x1="1035.63" y1="248.469" x2="739.945" y2="1061.76" gradientUnits="userSpaceOnUse">
<stop stop-color="white"/>
<stop offset="0.75" stop-color="#D7D7D7"/>
</linearGradient>
<linearGradient id="paint2_linear_3477_1910" x1="842.219" y1="1050.73" x2="492.561" y2="491.387" gradientUnits="userSpaceOnUse">
<stop stop-color="white"/>
<stop offset="0.75" stop-color="#E1E1E1"/>
</linearGradient>
<linearGradient id="paint3_linear_3477_1910" x1="617.235" y1="491.279" x2="267.571" y2="1050.62" gradientUnits="userSpaceOnUse">
<stop stop-color="white"/>
<stop offset="0.75" stop-color="#E4E4E4"/>
</linearGradient>
<linearGradient id="paint4_linear_3477_1910" x1="222.5" y1="241" x2="222.5" y2="1069" gradientUnits="userSpaceOnUse">
<stop stop-color="white"/>
<stop offset="1" stop-color="#F1F0F0"/>
</linearGradient>
</defs>
</svg>
