<svg width="53" height="77" viewBox="0 0 53 77" fill="none" xmlns="http://www.w3.org/2000/svg">
<path fill-rule="evenodd" clip-rule="evenodd" d="M39.9932 76H27.3445C25.8492 76 24.4756 75.2068 23.7477 73.9349C22.5896 71.9113 21.4076 69.8822 20.2215 67.846C18.1266 64.2495 16.0188 60.6308 14.0063 56.981C12.5122 54.2714 12.611 51.1791 14.7809 49.5692C15.865 48.7649 17.2589 48.5614 18.5807 49.0094C19.8002 49.4227 20.8221 50.3322 21.5993 51.5429V28.7713C21.5993 27.2872 22.2051 26.0355 23.213 25.1809C24.1791 24.3618 25.4002 24 26.5468 24C27.6934 24 28.9146 24.3618 29.8807 25.1809C30.8885 26.0355 31.4944 28.7713 31.4944 28.7713V49.5172H42.2346C45.4187 49.5172 48 52.0444 48 55.1619V67.1596C48 68.0682 47.6866 68.9501 47.1105 69.6624L43.2219 74.4709C42.4408 75.4368 41.2515 76 39.9932 76ZM42.2346 51.5331C44.2815 51.5331 45.9409 53.1578 45.9409 55.1619V67.1596C45.9409 67.6139 45.7842 68.0549 45.4962 68.411L41.6075 73.2195C41.217 73.7024 40.6224 73.984 39.9932 73.984H27.3445C26.5974 73.984 25.9092 73.5876 25.544 72.9495C24.3692 70.8968 23.1799 68.8552 21.991 66.8142C19.9056 63.2343 17.8213 59.6561 15.8182 56.0233C13.3424 51.5331 17.4688 48.6757 19.9446 52.7577L23.6584 58.0643V28.7713C23.6584 25.0975 29.4353 25.0975 29.4353 28.7713V51.5331H42.2346Z" fill="black"/>
<path fill-rule="evenodd" clip-rule="evenodd" d="M23.6582 58.0643L19.9444 52.7577C17.4685 48.6757 13.3421 51.5331 15.818 56.0233C17.8211 59.6561 19.9054 63.2342 21.9908 66.8142C23.1797 68.8552 24.369 70.8968 25.5438 72.9495C25.909 73.5876 26.5972 73.984 27.3443 73.984H39.993C40.6222 73.984 41.2168 73.7024 41.6073 73.2195L45.496 68.411C45.784 68.0549 45.9407 67.6139 45.9407 67.1596V55.1619C45.9407 53.1578 44.2813 51.5331 42.2344 51.5331H29.4351V28.7713C29.4351 25.0975 23.6582 25.0975 23.6582 28.7713V58.0643ZM32.4705 28.5551C32.4863 28.6261 32.4942 28.6986 32.4942 28.7713V48.5172H42.2344C45.9508 48.5172 48.9998 51.4723 48.9998 55.1619V67.1596C48.9998 68.2991 48.6065 69.4026 47.8878 70.2913L43.9992 75.0997C43.0254 76.3039 41.5487 77 39.993 77H27.3443C25.496 77 23.7884 76.0196 22.8795 74.4316C21.7236 72.4119 20.5436 70.3861 19.3572 68.3493L19.3543 68.3443C17.2614 64.7512 15.1485 61.124 13.1304 57.4638C11.5151 54.5343 11.4408 50.802 14.1849 48.7661C15.5442 47.7576 17.2831 47.5138 18.9015 48.0623C19.5198 48.2719 20.0862 48.5824 20.5991 48.9706V28.7713C20.5991 26.9993 21.3297 25.4665 22.5661 24.4182C23.739 23.4236 25.2 23 26.5466 23C27.8932 23 29.3542 23.4236 30.5272 24.4182C30.9226 24.7535 31.2209 25.2159 31.4424 25.6361C31.6719 26.0716 31.8608 26.5433 32.0089 26.9655C32.1581 27.3907 32.2724 27.7843 32.3495 28.0709C32.3882 28.2147 32.4178 28.333 32.438 28.4165C32.4482 28.4584 32.456 28.4916 32.4614 28.515L32.4678 28.5428L32.4696 28.5509L32.4705 28.5551C32.4706 28.5553 32.4705 28.5551 31.4942 28.7713C31.4942 28.7713 30.8883 26.0355 29.8805 25.1809C28.9144 24.3618 27.6932 24 26.5466 24C25.4 24 24.1789 24.3618 23.2128 25.1809C22.2049 26.0355 21.5991 27.2872 21.5991 28.7713V51.5429C21.3009 51.0784 20.9666 50.6582 20.5991 50.2934C20.0086 49.7073 19.3321 49.2641 18.5805 49.0094C17.2586 48.5614 15.8648 48.7649 14.7807 49.5692C12.6108 51.1791 12.512 54.2714 14.0061 56.981C16.0185 60.6308 18.1264 64.2495 20.2213 67.846C21.4073 69.882 22.5895 71.9116 23.7475 73.9349C24.4754 75.2068 25.849 76 27.3443 76H39.993C41.2513 76 42.4405 75.4368 43.2216 74.4709L47.1103 69.6624C47.6863 68.9501 47.9998 68.0682 47.9998 67.1596V55.1619C47.9998 52.0444 45.4185 49.5172 42.2344 49.5172H31.4942V28.7713L32.4705 28.5551ZM19.1251 53.3311C19.1126 53.3132 19.1007 53.295 19.0894 53.2763C18.5566 52.398 18.0017 52.0024 17.586 51.8615C17.1868 51.7263 16.8612 51.8003 16.6201 51.9791C16.1514 52.3268 15.5862 53.5319 16.6937 55.5405C18.6901 59.1612 20.7685 62.7292 22.8549 66.3108L22.8556 66.3121C24.044 68.3522 25.235 70.3967 26.4117 72.4528C26.5959 72.7747 26.9501 72.984 27.3443 72.984H39.993C40.3248 72.984 40.6319 72.8353 40.8298 72.5907L44.7184 67.7822C44.8638 67.6024 44.9407 67.3829 44.9407 67.1596V55.1619C44.9407 53.7299 43.7491 52.5331 42.2344 52.5331H29.4351C28.8828 52.5331 28.4351 52.0854 28.4351 51.5331V28.7713C28.4351 28.1411 28.1991 27.7332 27.8857 27.4675C27.5506 27.1834 27.0681 27.016 26.5466 27.016C26.0252 27.016 25.5426 27.1834 25.2075 27.4675C24.8942 27.7332 24.6582 28.1411 24.6582 28.7713V58.0643C24.6582 58.5008 24.375 58.8869 23.9587 59.0181C23.5424 59.1493 23.0891 58.9953 22.8389 58.6377L19.1251 53.3311Z" fill="black"/>
<path fill-rule="evenodd" clip-rule="evenodd" d="M26.5 15.5C20.5261 15.5 15.5 20.7436 15.5 27.4464C15.5 30.8012 16.7712 33.8146 18.7974 35.9735C19.3644 36.5775 19.3343 37.5268 18.7302 38.0937C18.1262 38.6607 17.1769 38.6306 16.61 38.0265C14.0621 35.3118 12.5 31.5644 12.5 27.4464C12.5 19.2967 18.6668 12.5 26.5 12.5C34.3332 12.5 40.5 19.2967 40.5 27.4464C40.5 31.5644 38.9379 35.3118 36.39 38.0265C35.8231 38.6306 34.8738 38.6607 34.2698 38.0937C33.6657 37.5268 33.6356 36.5775 34.2026 35.9735C36.2288 33.8146 37.5 30.8012 37.5 27.4464C37.5 20.7436 32.4739 15.5 26.5 15.5Z" fill="black"/>
<path fill-rule="evenodd" clip-rule="evenodd" d="M27.3596 4.51941C15.2453 3.99805 4.94951 13.5755 4.41612 25.9692C4.10161 33.2774 7.25565 39.9085 12.3868 44.2239C13.0208 44.7571 13.1025 45.7034 12.5693 46.3374C12.0361 46.9714 11.0899 47.0531 10.4558 46.5199C4.63345 41.6231 1.06319 34.1056 1.4189 25.8402C2.02137 11.841 13.6695 0.927458 27.4886 1.52218C41.3077 2.1169 51.9751 13.9908 51.3727 27.9901C51.0553 35.3634 47.6759 41.8763 42.5332 46.3041C41.9055 46.8446 40.9583 46.7738 40.4178 46.146C39.8773 45.5182 39.9481 44.5711 40.5759 44.0306C45.1101 40.1267 48.0948 34.3814 48.3754 27.8611C48.9088 15.4673 39.4739 5.04076 27.3596 4.51941Z" fill="black"/>
</svg>
