<svg xmlns="http://www.w3.org/2000/svg" xmlns:xlink="http://www.w3.org/1999/xlink" id="a" x="0px" y="0px" viewBox="0 0 692.3 666.8" style="enable-background:new 0 0 692.3 666.8;" xml:space="preserve"><style type="text/css">	.st0{fill:#00965A;}</style><path class="st0" d="M393.5,77.3c-7.2-2.8-32.2,27.1-41.3,56.4c-2.3,7.6-4.3,15.5-6,23.4c-0.3,1.6-6.6-2.3-11.5-9.9 s-8.6-19-8.9-17.4c-0.4,2,0.2,14.4,3.7,24.1c4.7,12.9,12.8,23.9,12.4,26.6c-5.5,34.3,0.6,67.8-10.6,58.1 c-23.9-20.4-48-71.7-39-111.1c17-74.3,76.1-151,141.1-120.9c53.4,24.8,40.7,110.2,2.6,166.8c-26,38.6-54.9,59-71,72.7 c-12.9,11-12.2-49.3,0.5-98.9C375.2,109.2,400.7,80.2,393.5,77.3L393.5,77.3z"></path><path class="st0" d="M486.7,666.8c-8,0-16.2-1.4-24.2-4.2c-37.3-13.4-56.6-54.4-43.3-91.7l133.9-373.1 c13.4-37.3,54.4-56.6,91.7-43.3c37.3,13.4,56.7,54.4,43.3,91.7L554.2,619.3C543.7,648.6,516.1,666.8,486.7,666.8L486.7,666.8z"></path><path class="st0" d="M486.8,666.8c-24.1,0-47.6-12.1-61.1-34.1L285.1,404.2c-20.8-33.7-10.2-77.9,23.5-98.6 c33.7-20.8,77.9-10.2,98.6,23.5l140.6,228.4c20.8,33.7,10.2,77.9-23.5,98.7C512.6,663.4,499.6,666.8,486.8,666.8L486.8,666.8z"></path><path class="st0" d="M205.5,666.8c-12.8,0-25.8-3.4-37.5-10.7c-33.7-20.8-44.2-64.9-23.5-98.7L285.1,329 c20.8-33.7,64.9-44.2,98.6-23.5s44.2,64.9,23.5,98.6L266.7,632.6C253.1,654.7,229.6,666.8,205.5,666.8L205.5,666.8z"></path><path class="st0" d="M205.6,666.8c-29.4,0-57-18.2-67.5-47.5L4.2,246.2c-13.4-37.3,6-78.3,43.3-91.7s78.3,6,91.7,43.3l133.9,373.1 c13.4,37.3-6,78.3-43.3,91.7C221.8,665.4,213.6,666.8,205.6,666.8z"></path></svg>